<?xml version="1.0" standalone="no"?><!DOCTYPE svg PUBLIC "-//W3C//DTD SVG 1.1//EN" "http://www.w3.org/Graphics/SVG/1.1/DTD/svg11.dtd"><svg t="1522035178288" class="icon" style="" viewBox="0 0 1024 1024" version="1.1" xmlns="http://www.w3.org/2000/svg" p-id="3281" xmlns:xlink="http://www.w3.org/1999/xlink" width="32" height="32"><defs><style type="text/css"></style></defs><path d="M925.006893 272.204565 812.473911 272.204565l-63.075571-84.096327L482.730884 188.108239l-64.836681 84.096327L302.785559 272.204565 302.785559 270.493597c0-19.156292-15.514345-34.688034-34.688034-34.688034l-67.208704 0c-19.172665 0-34.688034 15.532765-34.688034 34.688034l0 1.710968-67.208704 0c-19.173688 0-34.688034 15.531741-34.688034 34.688034l0 494.309082c0 19.156292 15.515369 34.688034 34.688034 34.688034l826.015833 0c19.173688 0 34.688034-15.532765 34.688034-34.688034L959.69595 306.893622C959.69595 287.736307 944.181605 272.204565 925.006893 272.204565zM328.801073 421.593967c0 9.943466-20.459984 18.005073-45.697785 18.005073l-88.549755 0c-25.236777 0-45.697785-8.061606-45.697785-18.005073l0-22.543436c0-9.925047 20.461007-18.005073 45.697785-18.005073l88.549755 0c25.237801 0 45.697785 8.080026 45.697785 18.005073L328.801073 421.593967zM617.149317 775.642562c-116.15958 0-210.298634-94.15645-210.298634-210.29761s94.139054-210.315006 210.298634-210.315006c116.158556 0 210.29761 94.173846 210.29761 210.315006S733.30685 775.642562 617.149317 775.642562z" p-id="3282" fill="#ffffff"></path><path d="M617.149317 408.636864c-86.552262 0-156.708088 70.15685-156.708088 156.708088s70.155826 156.707065 156.708088 156.707065c86.551238 0 156.707065-70.155826 156.707065-156.707065S703.700555 408.636864 617.149317 408.636864z" p-id="3283" fill="#ffffff"></path></svg>